<svg width="661" height="190" viewBox="0 0 661 190" fill="none" xmlns="http://www.w3.org/2000/svg">
<path d="M130.408 72L130.216 36.384L112.936 65.376H104.488L87.3036 37.344V72H69.7356V4.8H85.3836L109 43.584L132.04 4.8H147.688L147.88 72H130.408ZM182.641 19.104C191.281 19.104 197.873 21.088 202.417 25.056C206.961 28.96 209.233 34.976 209.233 43.104V72H192.241V65.28C189.617 70.336 184.497 72.864 176.881 72.864C172.849 72.864 169.361 72.16 166.417 70.752C163.473 69.344 161.233 67.456 159.697 65.088C158.225 62.656 157.489 59.904 157.489 56.832C157.489 51.904 159.377 48.096 163.153 45.408C166.929 42.656 172.753 41.28 180.625 41.28H190.993C190.673 35.776 186.993 33.024 179.953 33.024C177.457 33.024 174.929 33.44 172.369 34.272C169.809 35.04 167.633 36.128 165.841 37.536L159.697 25.152C162.577 23.232 166.065 21.76 170.161 20.736C174.321 19.648 178.481 19.104 182.641 19.104ZM181.969 61.344C184.081 61.344 185.937 60.832 187.537 59.808C189.137 58.784 190.289 57.28 190.993 55.296V50.784H183.121C177.809 50.784 175.153 52.544 175.153 56.064C175.153 57.664 175.761 58.944 176.977 59.904C178.193 60.864 179.857 61.344 181.969 61.344ZM244.363 53.76L238.987 59.232V72H220.747V0.767996H238.987V38.112L257.611 19.968H279.211L257.611 42.24L281.035 72H258.955L244.363 53.76ZM337.399 46.08C337.399 46.208 337.303 47.712 337.111 50.592H299.287C300.055 53.28 301.527 55.36 303.703 56.832C305.943 58.24 308.727 58.944 312.055 58.944C314.551 58.944 316.695 58.592 318.487 57.888C320.343 57.184 322.199 56.032 324.055 54.432L333.655 64.416C328.599 70.048 321.207 72.864 311.479 72.864C305.399 72.864 300.055 71.712 295.447 69.408C290.839 67.104 287.255 63.904 284.695 59.808C282.199 55.712 280.951 51.072 280.951 45.888C280.951 40.768 282.167 36.192 284.599 32.16C287.095 28.064 290.519 24.864 294.871 22.56C299.223 20.256 304.119 19.104 309.559 19.104C314.743 19.104 319.447 20.192 323.671 22.368C327.895 24.48 331.223 27.584 333.655 31.68C336.151 35.712 337.399 40.512 337.399 46.08ZM309.655 32.064C306.839 32.064 304.471 32.864 302.551 34.464C300.695 36.064 299.511 38.24 298.999 40.992H320.311C319.799 38.24 318.583 36.064 316.663 34.464C314.807 32.864 312.471 32.064 309.655 32.064ZM428.563 19.968L406.099 74.112C403.475 80.512 400.275 84.992 396.499 87.552C392.723 90.176 388.115 91.488 382.675 91.488C379.923 91.488 377.139 91.04 374.323 90.144C371.571 89.312 369.331 88.192 367.603 86.784L373.939 74.016C374.963 74.976 376.179 75.712 377.587 76.224C379.059 76.8 380.531 77.088 382.003 77.088C383.731 77.088 385.139 76.736 386.227 76.032C387.379 75.328 388.339 74.208 389.107 72.672L366.835 19.968H385.555L398.323 51.744L411.187 19.968H428.563ZM457.984 72.864C452.416 72.864 447.392 71.712 442.912 69.408C438.432 67.104 434.912 63.904 432.352 59.808C429.856 55.712 428.608 51.072 428.608 45.888C428.608 40.768 429.856 36.16 432.352 32.064C434.912 27.968 438.4 24.8 442.816 22.56C447.296 20.256 452.352 19.104 457.984 19.104C463.616 19.104 468.672 20.256 473.152 22.56C477.632 24.8 481.12 27.968 483.616 32.064C486.112 36.096 487.36 40.704 487.36 45.888C487.36 51.072 486.112 55.712 483.616 59.808C481.12 63.904 477.632 67.104 473.152 69.408C468.672 71.712 463.616 72.864 457.984 72.864ZM457.984 58.368C461.184 58.368 463.808 57.28 465.856 55.104C467.904 52.864 468.928 49.792 468.928 45.888C468.928 42.048 467.904 39.04 465.856 36.864C463.808 34.688 461.184 33.6 457.984 33.6C454.784 33.6 452.16 34.688 450.112 36.864C448.064 39.04 447.04 42.048 447.04 45.888C447.04 49.792 448.064 52.864 450.112 55.104C452.16 57.28 454.784 58.368 457.984 58.368ZM550.529 19.968V72H533.153V66.432C531.233 68.544 528.929 70.144 526.241 71.232C523.553 72.32 520.705 72.864 517.697 72.864C510.977 72.864 505.601 70.88 501.569 66.912C497.601 62.944 495.617 56.992 495.617 49.056V19.968H513.857V46.08C513.857 49.984 514.593 52.832 516.065 54.624C517.537 56.416 519.681 57.312 522.497 57.312C525.377 57.312 527.713 56.32 529.505 54.336C531.361 52.288 532.289 49.184 532.289 45.024V19.968H550.529ZM579.654 26.208C581.51 23.84 583.91 22.08 586.854 20.928C589.862 19.712 593.286 19.104 597.126 19.104V35.52C595.462 35.328 594.086 35.232 592.998 35.232C589.094 35.232 586.022 36.288 583.782 38.4C581.606 40.512 580.518 43.744 580.518 48.096V72H562.278V19.968H579.654V26.208ZM25.6499 138.888H38.0339V152.52H26.1299V189H7.88988V152.52H0.305875V138.888H7.88988V137.544C7.88988 131.208 9.77788 126.184 13.5539 122.472C17.3939 118.76 22.7379 116.904 29.5859 116.904C31.8899 116.904 34.1299 117.128 36.3059 117.576C38.4819 118.024 40.2739 118.696 41.6819 119.592L37.1699 132.456C35.3779 131.432 33.5539 130.92 31.6979 130.92C29.7779 130.92 28.2739 131.496 27.1859 132.648C26.1619 133.8 25.6499 135.496 25.6499 137.736V138.888ZM99.4979 136.968V189H82.1219V183.432C80.2019 185.544 77.8979 187.144 75.2099 188.232C72.5219 189.32 69.6739 189.864 66.6659 189.864C59.9459 189.864 54.5699 187.88 50.5379 183.912C46.5699 179.944 44.5859 173.992 44.5859 166.056V136.968H62.8259V163.08C62.8259 166.984 63.5619 169.832 65.0339 171.624C66.5059 173.416 68.6499 174.312 71.4659 174.312C74.3459 174.312 76.6819 173.32 78.4739 171.336C80.3299 169.288 81.2579 166.184 81.2579 162.024V136.968H99.4979ZM147.151 186.888C145.615 187.848 143.727 188.584 141.487 189.096C139.311 189.608 136.975 189.864 134.479 189.864C127.695 189.864 122.479 188.2 118.831 184.872C115.183 181.544 113.359 176.584 113.359 169.992V152.52H105.775V138.888H113.359V125.352H131.599V138.888H143.503V152.52H131.599V169.8C131.599 171.656 132.079 173.128 133.039 174.216C134.063 175.24 135.407 175.752 137.071 175.752C139.183 175.752 141.039 175.208 142.639 174.12L147.151 186.888ZM208.904 136.968V189H191.528V183.432C189.608 185.544 187.304 187.144 184.616 188.232C181.928 189.32 179.08 189.864 176.072 189.864C169.352 189.864 163.976 187.88 159.944 183.912C155.976 179.944 153.992 173.992 153.992 166.056V136.968H172.232V163.08C172.232 166.984 172.968 169.832 174.44 171.624C175.912 173.416 178.056 174.312 180.872 174.312C183.752 174.312 186.088 173.32 187.88 171.336C189.736 169.288 190.664 166.184 190.664 162.024V136.968H208.904ZM238.029 143.208C239.885 140.84 242.285 139.08 245.229 137.928C248.237 136.712 251.661 136.104 255.501 136.104V152.52C253.837 152.328 252.461 152.232 251.373 152.232C247.469 152.232 244.397 153.288 242.157 155.4C239.981 157.512 238.893 160.744 238.893 165.096V189H220.653V136.968H238.029V143.208ZM315.743 163.08C315.743 163.208 315.647 164.712 315.455 167.592H277.631C278.399 170.28 279.871 172.36 282.047 173.832C284.287 175.24 287.071 175.944 290.399 175.944C292.895 175.944 295.039 175.592 296.831 174.888C298.687 174.184 300.543 173.032 302.399 171.432L311.999 181.416C306.943 187.048 299.551 189.864 289.823 189.864C283.743 189.864 278.399 188.712 273.791 186.408C269.183 184.104 265.599 180.904 263.039 176.808C260.543 172.712 259.295 168.072 259.295 162.888C259.295 157.768 260.511 153.192 262.943 149.16C265.439 145.064 268.863 141.864 273.215 139.56C277.567 137.256 282.463 136.104 287.903 136.104C293.087 136.104 297.791 137.192 302.015 139.368C306.239 141.48 309.567 144.584 311.999 148.68C314.495 152.712 315.743 157.512 315.743 163.08ZM287.999 149.064C285.183 149.064 282.815 149.864 280.895 151.464C279.039 153.064 277.855 155.24 277.343 157.992H298.655C298.143 155.24 296.927 153.064 295.007 151.464C293.151 149.864 290.815 149.064 287.999 149.064ZM384.826 136.104C389.562 136.104 393.85 137.192 397.69 139.368C401.594 141.544 404.666 144.68 406.906 148.776C409.21 152.808 410.362 157.512 410.362 162.888C410.362 168.264 409.21 173 406.906 177.096C404.666 181.192 401.594 184.36 397.69 186.6C393.85 188.776 389.562 189.864 384.826 189.864C377.978 189.864 372.858 187.848 369.466 183.816V189H352.09V117.768H370.33V141.48C373.85 137.896 378.682 136.104 384.826 136.104ZM380.986 175.368C384.186 175.368 386.81 174.28 388.858 172.104C390.906 169.864 391.93 166.792 391.93 162.888C391.93 159.048 390.906 156.04 388.858 153.864C386.81 151.688 384.186 150.6 380.986 150.6C377.786 150.6 375.162 151.688 373.114 153.864C371.066 156.04 370.042 159.048 370.042 162.888C370.042 166.792 371.066 169.864 373.114 172.104C375.162 174.28 377.786 175.368 380.986 175.368ZM472.024 163.08C472.024 163.208 471.928 164.712 471.736 167.592H433.912C434.68 170.28 436.152 172.36 438.328 173.832C440.568 175.24 443.352 175.944 446.68 175.944C449.176 175.944 451.32 175.592 453.112 174.888C454.968 174.184 456.824 173.032 458.68 171.432L468.28 181.416C463.224 187.048 455.832 189.864 446.104 189.864C440.024 189.864 434.68 188.712 430.072 186.408C425.464 184.104 421.88 180.904 419.32 176.808C416.824 172.712 415.576 168.072 415.576 162.888C415.576 157.768 416.792 153.192 419.224 149.16C421.72 145.064 425.144 141.864 429.496 139.56C433.848 137.256 438.744 136.104 444.184 136.104C449.368 136.104 454.072 137.192 458.296 139.368C462.52 141.48 465.848 144.584 468.28 148.68C470.776 152.712 472.024 157.512 472.024 163.08ZM444.28 149.064C441.464 149.064 439.096 149.864 437.176 151.464C435.32 153.064 434.136 155.24 433.624 157.992H454.936C454.424 155.24 453.208 153.064 451.288 151.464C449.432 149.864 447.096 149.064 444.28 149.064ZM516.338 186.888C514.802 187.848 512.914 188.584 510.674 189.096C508.498 189.608 506.162 189.864 503.666 189.864C496.882 189.864 491.666 188.2 488.018 184.872C484.37 181.544 482.546 176.584 482.546 169.992V152.52H474.962V138.888H482.546V125.352H500.786V138.888H512.69V152.52H500.786V169.8C500.786 171.656 501.266 173.128 502.226 174.216C503.25 175.24 504.594 175.752 506.258 175.752C508.37 175.752 510.226 175.208 511.826 174.12L516.338 186.888ZM558.244 186.888C556.708 187.848 554.82 188.584 552.58 189.096C550.404 189.608 548.068 189.864 545.572 189.864C538.788 189.864 533.572 188.2 529.924 184.872C526.276 181.544 524.452 176.584 524.452 169.992V152.52H516.868V138.888H524.452V125.352H542.692V138.888H554.596V152.52H542.692V169.8C542.692 171.656 543.172 173.128 544.132 174.216C545.156 175.24 546.5 175.752 548.164 175.752C550.276 175.752 552.132 175.208 553.732 174.12L558.244 186.888ZM616.962 163.08C616.962 163.208 616.866 164.712 616.674 167.592H578.85C579.618 170.28 581.09 172.36 583.266 173.832C585.506 175.24 588.29 175.944 591.618 175.944C594.114 175.944 596.258 175.592 598.05 174.888C599.906 174.184 601.762 173.032 603.618 171.432L613.218 181.416C608.162 187.048 600.77 189.864 591.042 189.864C584.962 189.864 579.618 188.712 575.01 186.408C570.402 184.104 566.818 180.904 564.258 176.808C561.762 172.712 560.514 168.072 560.514 162.888C560.514 157.768 561.73 153.192 564.162 149.16C566.658 145.064 570.082 141.864 574.434 139.56C578.786 137.256 583.682 136.104 589.122 136.104C594.306 136.104 599.01 137.192 603.234 139.368C607.458 141.48 610.786 144.584 613.218 148.68C615.714 152.712 616.962 157.512 616.962 163.08ZM589.218 149.064C586.402 149.064 584.034 149.864 582.114 151.464C580.258 153.064 579.074 155.24 578.562 157.992H599.874C599.362 155.24 598.146 153.064 596.226 151.464C594.37 149.864 592.034 149.064 589.218 149.064ZM642.748 143.208C644.604 140.84 647.004 139.08 649.948 137.928C652.956 136.712 656.38 136.104 660.22 136.104V152.52C658.556 152.328 657.18 152.232 656.092 152.232C652.188 152.232 649.116 153.288 646.876 155.4C644.7 157.512 643.612 160.744 643.612 165.096V189H625.372V136.968H642.748V143.208Z" fill="#2E2455"/>
<path d="M130.408 72L129.408 72.0054L129.413 73H130.408V72ZM130.216 36.384L131.216 36.3786L131.196 32.7856L129.357 35.872L130.216 36.384ZM112.936 65.376V66.376H113.504L113.795 65.888L112.936 65.376ZM104.488 65.376L103.635 65.8986L103.928 66.376H104.488V65.376ZM87.3036 37.344L88.1562 36.8214L86.3036 33.7993V37.344H87.3036ZM87.3036 72V73H88.3036V72H87.3036ZM69.7356 72H68.7356V73H69.7356V72ZM69.7356 4.8V3.8H68.7356V4.8H69.7356ZM85.3836 4.8L86.2377 4.27991L85.9455 3.8H85.3836V4.8ZM109 43.584L108.146 44.1041L109.01 45.5242L109.859 44.0947L109 43.584ZM132.04 4.8V3.8H131.471L131.18 4.28926L132.04 4.8ZM147.688 4.8L148.688 4.79714L148.685 3.8H147.688V4.8ZM147.88 72V73H148.882L148.88 71.9971L147.88 72ZM131.408 71.9946L131.216 36.3786L129.216 36.3894L129.408 72.0054L131.408 71.9946ZM129.357 35.872L112.077 64.864L113.795 65.888L131.075 36.896L129.357 35.872ZM112.936 64.376H104.488V66.376H112.936V64.376ZM105.34 64.8534L88.1562 36.8214L86.4511 37.8666L103.635 65.8986L105.34 64.8534ZM86.3036 37.344V72H88.3036V37.344H86.3036ZM87.3036 71H69.7356V73H87.3036V71ZM70.7356 72V4.8H68.7356V72H70.7356ZM69.7356 5.8H85.3836V3.8H69.7356V5.8ZM84.5295 5.32008L108.146 44.1041L109.854 43.0639L86.2377 4.27991L84.5295 5.32008ZM109.859 44.0947L132.899 5.31073L131.18 4.28926L108.14 43.0733L109.859 44.0947ZM132.04 5.8H147.688V3.8H132.04V5.8ZM146.688 4.80285L146.88 72.0029L148.88 71.9971L148.688 4.79714L146.688 4.80285ZM147.88 71H130.408V73H147.88V71ZM202.417 25.056L201.76 25.8093L201.766 25.8145L202.417 25.056ZM209.233 72V73H210.233V72H209.233ZM192.241 72H191.241V73H192.241V72ZM192.241 65.28H193.241L191.354 64.8194L192.241 65.28ZM166.417 70.752L165.986 71.6541L165.986 71.6541L166.417 70.752ZM159.697 65.088L158.842 65.6058L158.85 65.6191L158.858 65.6322L159.697 65.088ZM163.153 45.408L163.733 46.2227L163.742 46.2161L163.153 45.408ZM190.993 41.28V42.28H192.053L191.992 41.222L190.993 41.28ZM172.369 34.272L172.657 35.2298L172.668 35.2266L172.678 35.223L172.369 34.272ZM165.841 37.536L164.946 37.9804L165.492 39.0821L166.459 38.3223L165.841 37.536ZM159.697 25.152L159.143 24.3199L158.41 24.8081L158.802 25.5964L159.697 25.152ZM170.161 20.736L170.404 21.7062L170.414 21.7035L170.161 20.736ZM187.537 59.808L188.076 60.6503L188.076 60.6503L187.537 59.808ZM190.993 55.296L191.936 55.6304L191.993 55.4682V55.296H190.993ZM190.993 50.784H191.993V49.784H190.993V50.784ZM176.977 59.904L176.358 60.6889L176.358 60.6889L176.977 59.904ZM182.641 20.104C191.143 20.104 197.463 22.0571 201.76 25.8092L203.075 24.3028C198.284 20.1189 191.42 18.104 182.641 18.104V20.104ZM201.766 25.8145C206.017 29.4672 208.233 35.1581 208.233 43.104H210.233C210.233 34.7939 207.906 28.4528 203.069 24.2975L201.766 25.8145ZM208.233 43.104V72H210.233V43.104H208.233ZM209.233 71H192.241V73H209.233V71ZM193.241 72V65.28H191.241V72H193.241ZM191.354 64.8194C188.96 69.4318 184.27 71.864 176.881 71.864V73.864C184.725 73.864 190.275 71.2402 193.129 65.7406L191.354 64.8194ZM176.881 71.864C172.964 71.864 169.63 71.1801 166.849 69.8499L165.986 71.6541C169.093 73.1399 172.734 73.864 176.881 73.864V71.864ZM166.849 69.8499C164.045 68.5087 161.957 66.7344 160.536 64.5438L158.858 65.6322C160.51 68.1776 162.902 70.1793 165.986 71.6541L166.849 69.8499ZM160.553 64.5702C159.183 62.3069 158.489 59.7367 158.489 56.832H156.489C156.489 60.0713 157.268 63.0051 158.842 65.6058L160.553 64.5702ZM158.489 56.832C158.489 52.2035 160.24 48.7095 163.733 46.2227L162.573 44.5933C158.515 47.4825 156.489 51.6045 156.489 56.832H158.489ZM163.742 46.2161C167.265 43.6485 172.834 42.28 180.625 42.28V40.28C172.673 40.28 166.593 41.6635 162.564 44.5999L163.742 46.2161ZM180.625 42.28H190.993V40.28H180.625V42.28ZM191.992 41.222C191.818 38.2403 190.716 35.8752 188.592 34.2872C186.509 32.7294 183.581 32.024 179.953 32.024V34.024C183.366 34.024 185.798 34.6946 187.394 35.8888C188.951 37.0528 189.848 38.8157 189.995 41.338L191.992 41.222ZM179.953 32.024C177.344 32.024 174.712 32.4591 172.06 33.321L172.678 35.223C175.146 34.4209 177.57 34.024 179.953 34.024V32.024ZM172.082 33.3142C169.422 34.112 167.129 35.2522 165.224 36.7497L166.459 38.3223C168.137 37.0038 170.196 35.968 172.657 35.2298L172.082 33.3142ZM166.737 37.0916L160.593 24.7076L158.802 25.5964L164.946 37.9804L166.737 37.0916ZM160.252 25.984C163.018 24.1399 166.395 22.7082 170.404 21.7061L169.919 19.7659C165.735 20.8117 162.136 22.3241 159.143 24.3199L160.252 25.984ZM170.414 21.7035C174.495 20.6363 178.57 20.104 182.641 20.104V18.104C178.393 18.104 174.148 18.6597 169.908 19.7685L170.414 21.7035ZM181.969 62.344C184.25 62.344 186.298 61.7886 188.076 60.6503L186.998 58.9657C185.577 59.8754 183.912 60.344 181.969 60.344V62.344ZM188.076 60.6503C189.884 59.4935 191.166 57.7998 191.936 55.6304L190.051 54.9616C189.413 56.7602 188.391 58.0745 186.998 58.9657L188.076 60.6503ZM191.993 55.296V50.784H189.993V55.296H191.993ZM190.993 49.784H183.121V51.784H190.993V49.784ZM183.121 49.784C180.387 49.784 178.161 50.2313 176.593 51.2704C174.953 52.3574 174.153 54.0101 174.153 56.064H176.153C176.153 54.5979 176.682 53.6106 177.698 52.9376C178.786 52.2167 180.544 51.784 183.121 51.784V49.784ZM174.153 56.064C174.153 57.9584 174.893 59.5321 176.358 60.6889L177.597 59.1191C176.63 58.3559 176.153 57.3696 176.153 56.064H174.153ZM176.358 60.6889C177.805 61.8312 179.713 62.344 181.969 62.344V60.344C180.001 60.344 178.582 59.8968 177.597 59.1191L176.358 60.6889ZM244.363 53.76L245.143 53.1353L244.439 52.2551L243.649 53.0592L244.363 53.76ZM238.987 59.232L238.273 58.5312L237.987 58.823V59.232H238.987ZM238.987 72V73H239.987V72H238.987ZM220.747 72H219.747V73H220.747V72ZM220.747 0.767996V-0.232004H219.747V0.767996H220.747ZM238.987 0.767996H239.987V-0.232004H238.987V0.767996ZM238.987 38.112H237.987V40.4823L239.684 38.8283L238.987 38.112ZM257.611 19.968V18.968H257.204L256.913 19.2517L257.611 19.968ZM279.211 19.968L279.928 20.6642L281.573 18.968H279.211V19.968ZM257.611 42.24L256.893 41.5438L256.284 42.1714L256.825 42.8585L257.611 42.24ZM281.035 72V73H283.094L281.82 71.3815L281.035 72ZM258.955 72L258.174 72.6247L258.474 73H258.955V72ZM243.649 53.0592L238.273 58.5312L239.7 59.9328L245.076 54.4608L243.649 53.0592ZM237.987 59.232V72H239.987V59.232H237.987ZM238.987 71H220.747V73H238.987V71ZM221.747 72V0.767996H219.747V72H221.747ZM220.747 1.768H238.987V-0.232004H220.747V1.768ZM237.987 0.767996V38.112H239.987V0.767996H237.987ZM239.684 38.8283L258.308 20.6843L256.913 19.2517L238.289 37.3957L239.684 38.8283ZM257.611 20.968H279.211V18.968H257.611V20.968ZM278.493 19.2718L256.893 41.5438L258.328 42.9362L279.928 20.6642L278.493 19.2718ZM256.825 42.8585L280.249 72.6185L281.82 71.3815L258.396 41.6215L256.825 42.8585ZM281.035 71H258.955V73H281.035V71ZM259.735 71.3753L245.143 53.1353L243.582 54.3847L258.174 72.6247L259.735 71.3753ZM337.111 50.592V51.592H338.047L338.109 50.6585L337.111 50.592ZM299.287 50.592V49.592H297.962L298.326 50.8667L299.287 50.592ZM303.703 56.832L303.143 57.6603L303.157 57.6697L303.171 57.6786L303.703 56.832ZM318.487 57.888L318.133 56.9529L318.122 56.9572L318.487 57.888ZM324.055 54.432L324.776 53.7389L324.12 53.0562L323.402 53.6746L324.055 54.432ZM333.655 64.416L334.4 65.084L335.02 64.3926L334.376 63.7229L333.655 64.416ZM295.447 69.408L295.895 68.5136L295.447 69.408ZM284.695 59.808L283.841 60.3284L283.847 60.338L284.695 59.808ZM284.599 32.16L283.745 31.6396L283.743 31.6435L284.599 32.16ZM294.871 22.56L294.403 21.6762L294.403 21.6762L294.871 22.56ZM323.671 22.368L323.213 23.257L323.224 23.2624L323.671 22.368ZM333.655 31.68L332.796 32.1905L332.8 32.1985L332.805 32.2064L333.655 31.68ZM302.551 34.464L301.911 33.6958L301.905 33.7011L301.898 33.7066L302.551 34.464ZM298.999 40.992L298.016 40.8091L297.796 41.992H298.999V40.992ZM320.311 40.992V41.992H321.515L321.295 40.8091L320.311 40.992ZM316.663 34.464L316.01 35.2214L316.017 35.2269L316.023 35.2322L316.663 34.464ZM336.399 46.08C336.399 46.0743 336.396 46.1519 336.383 46.3753C336.371 46.5768 336.353 46.8648 336.329 47.2403C336.282 47.9909 336.21 49.0857 336.114 50.5255L338.109 50.6585C338.299 47.8155 338.399 46.2522 338.399 46.08H336.399ZM337.111 49.592H299.287V51.592H337.111V49.592ZM298.326 50.8667C299.154 53.765 300.759 56.0478 303.143 57.6603L304.264 56.0037C302.295 54.6722 300.957 52.795 300.249 50.3173L298.326 50.8667ZM303.171 57.6786C305.607 59.2097 308.587 59.944 312.055 59.944V57.944C308.867 57.944 306.28 57.2703 304.236 55.9854L303.171 57.6786ZM312.055 59.944C314.641 59.944 316.916 59.5799 318.853 58.8188L318.122 56.9572C316.475 57.6041 314.462 57.944 312.055 57.944V59.944ZM318.842 58.823C320.829 58.0692 322.784 56.8483 324.708 55.1894L323.402 53.6746C321.615 55.2157 319.858 56.2988 318.133 56.953L318.842 58.823ZM323.335 55.1251L332.935 65.1091L334.376 63.7229L324.776 53.7389L323.335 55.1251ZM332.911 63.748C328.096 69.112 321.01 71.864 311.479 71.864V73.864C321.405 73.864 329.103 70.984 334.4 65.084L332.911 63.748ZM311.479 71.864C305.527 71.864 300.341 70.7367 295.895 68.5136L295 70.3024C299.77 72.6873 305.272 73.864 311.479 73.864V71.864ZM295.895 68.5136C291.44 66.2862 287.999 63.2075 285.543 59.278L283.847 60.338C286.511 64.6005 290.239 67.9218 295 70.3024L295.895 68.5136ZM285.549 59.2876C283.157 55.361 281.951 50.9038 281.951 45.888H279.951C279.951 51.2402 281.242 56.063 283.841 60.3284L285.549 59.2876ZM281.951 45.888C281.951 40.9336 283.126 36.5391 285.456 32.6765L283.743 31.6435C281.209 35.8449 279.951 40.6024 279.951 45.888H281.951ZM285.453 32.6804C287.853 28.7423 291.142 25.6659 295.339 23.4438L294.403 21.6762C289.897 24.0621 286.338 27.3857 283.745 31.6396L285.453 32.6804ZM295.339 23.4438C299.532 21.2238 304.265 20.104 309.559 20.104V18.104C303.974 18.104 298.914 19.2881 294.403 21.6762L295.339 23.4438ZM309.559 20.104C314.599 20.104 319.144 21.1604 323.213 23.257L324.129 21.479C319.751 19.2236 314.888 18.104 309.559 18.104V20.104ZM323.224 23.2624C327.275 25.2879 330.461 28.2579 332.796 32.1905L334.515 31.1695C331.986 26.9101 328.516 23.6721 324.119 21.4736L323.224 23.2624ZM332.805 32.2064C335.187 36.0545 336.399 40.6651 336.399 46.08H338.399C338.399 40.3589 337.115 35.3695 334.506 31.1536L332.805 32.2064ZM309.655 31.064C306.637 31.064 304.034 31.927 301.911 33.6958L303.192 35.2322C304.909 33.801 307.042 33.064 309.655 33.064V31.064ZM301.898 33.7066C299.846 35.4758 298.564 37.8671 298.016 40.8091L299.983 41.1749C300.459 38.6129 301.545 36.6522 303.204 35.2214L301.898 33.7066ZM298.999 41.992H320.311V39.992H298.999V41.992ZM321.295 40.8091C320.745 37.8572 319.424 35.463 317.304 33.6958L316.023 35.2322C317.743 36.665 318.853 38.6228 319.328 41.1749L321.295 40.8091ZM317.316 33.7066C315.252 31.927 312.673 31.064 309.655 31.064V33.064C312.27 33.064 314.363 33.801 316.01 35.2214L317.316 33.7066ZM428.563 19.968L429.486 20.3512L430.06 18.968H428.563V19.968ZM406.099 74.112L405.175 73.7288L405.173 73.7326L406.099 74.112ZM396.499 87.552L395.937 86.7242L395.928 86.7308L396.499 87.552ZM374.323 90.144L374.626 89.1911L374.619 89.1889L374.612 89.1868L374.323 90.144ZM367.603 86.784L366.707 86.3395L366.352 87.0548L366.971 87.5592L367.603 86.784ZM373.939 74.016L374.623 73.2865L373.641 72.3662L373.043 73.5715L373.939 74.016ZM377.587 76.224L377.951 75.2928L377.94 75.2883L377.928 75.2842L377.587 76.224ZM386.227 76.032L385.705 75.1787L385.694 75.1854L385.683 75.1924L386.227 76.032ZM389.107 72.672L390.001 73.1192L390.207 72.7071L390.028 72.2827L389.107 72.672ZM366.835 19.968V18.968H365.326L365.913 20.3573L366.835 19.968ZM385.555 19.968L386.483 19.5952L386.231 18.968H385.555V19.968ZM398.323 51.744L397.395 52.1168L398.319 54.4175L399.25 52.1192L398.323 51.744ZM411.187 19.968V18.968H410.513L410.26 19.5927L411.187 19.968ZM427.639 19.5848L405.175 73.7288L407.022 74.4952L429.486 20.3512L427.639 19.5848ZM405.173 73.7326C402.588 80.0384 399.487 84.318 395.937 86.7243L397.06 88.3797C401.063 85.666 404.361 80.9856 407.024 74.4914L405.173 73.7326ZM395.928 86.7308C392.348 89.2183 387.949 90.488 382.675 90.488V92.488C388.28 92.488 393.097 91.1337 397.069 88.3732L395.928 86.7308ZM382.675 90.488C380.033 90.488 377.351 90.0582 374.626 89.1911L374.019 91.0969C376.926 92.0218 379.812 92.488 382.675 92.488V90.488ZM374.612 89.1868C371.95 88.3821 369.836 87.3143 368.234 86.0088L366.971 87.5592C368.825 89.0697 371.191 90.2419 374.033 91.1012L374.612 89.1868ZM368.498 87.2285L374.834 74.4605L373.043 73.5715L366.707 86.3395L368.498 87.2285ZM373.255 74.7455C374.384 75.8042 375.718 76.6087 377.245 77.1638L377.928 75.2842C376.639 74.8153 375.541 74.1478 374.623 73.2865L373.255 74.7455ZM377.222 77.1552C378.802 77.7733 380.397 78.088 382.003 78.088V76.088C380.664 76.088 379.316 75.8267 377.951 75.2928L377.222 77.1552ZM382.003 78.088C383.861 78.088 385.474 77.7099 386.77 76.8716L385.683 75.1924C384.803 75.7621 383.601 76.088 382.003 76.088V78.088ZM386.748 76.8853C388.098 76.0602 389.172 74.7777 390.001 73.1192L388.212 72.2248C387.505 73.6383 386.659 74.5958 385.705 75.1787L386.748 76.8853ZM390.028 72.2827L367.756 19.5787L365.913 20.3573L388.185 73.0613L390.028 72.2827ZM366.835 20.968H385.555V18.968H366.835V20.968ZM384.627 20.3408L397.395 52.1168L399.251 51.3712L386.483 19.5952L384.627 20.3408ZM399.25 52.1192L412.114 20.3432L410.26 19.5927L397.396 51.3687L399.25 52.1192ZM411.187 20.968H428.563V18.968H411.187V20.968ZM442.912 69.408L443.369 68.5187L443.369 68.5187L442.912 69.408ZM432.352 59.808L431.498 60.3284L431.504 60.338L432.352 59.808ZM432.352 32.064L431.504 31.534L431.498 31.5436L432.352 32.064ZM442.816 22.56L443.268 23.4518L443.273 23.4493L442.816 22.56ZM473.152 22.56L472.694 23.4493L472.704 23.4544L473.152 22.56ZM483.616 32.064L482.762 32.5844L482.765 32.5904L483.616 32.064ZM483.616 59.808L482.762 59.2876L482.762 59.2876L483.616 59.808ZM473.152 69.408L472.694 68.5187L472.694 68.5187L473.152 69.408ZM465.856 55.104L466.584 55.7894L466.589 55.7841L466.594 55.7788L465.856 55.104ZM465.856 36.864L466.584 36.1786L466.584 36.1786L465.856 36.864ZM450.112 36.864L449.383 36.1786L449.383 36.1786L450.112 36.864ZM450.112 55.104L449.374 55.7788L449.378 55.7841L449.383 55.7894L450.112 55.104ZM457.984 71.864C452.558 71.864 447.693 70.7426 443.369 68.5187L442.454 70.2973C447.09 72.6814 452.274 73.864 457.984 73.864V71.864ZM443.369 68.5187C439.042 66.2934 435.66 63.2145 433.2 59.278L431.504 60.338C434.163 64.5935 437.821 67.9146 442.454 70.2973L443.369 68.5187ZM433.206 59.2876C430.813 55.361 429.608 50.9038 429.608 45.888H427.608C427.608 51.2402 428.898 56.063 431.498 60.3284L433.206 59.2876ZM429.608 45.888C429.608 40.9387 430.812 36.513 433.206 32.5844L431.498 31.5436C428.9 35.807 427.608 40.5973 427.608 45.888H429.608ZM433.2 32.594C435.661 28.6564 439.01 25.6116 443.268 23.4518L442.363 21.6682C437.789 23.9883 434.163 27.2796 431.504 31.534L433.2 32.594ZM443.273 23.4493C447.596 21.2263 452.492 20.104 457.984 20.104V18.104C452.212 18.104 446.996 19.2857 442.358 21.6707L443.273 23.4493ZM457.984 20.104C463.476 20.104 468.372 21.2263 472.694 23.4493L473.609 21.6707C468.972 19.2857 463.756 18.104 457.984 18.104V20.104ZM472.704 23.4544C477.024 25.6143 480.368 28.6561 482.762 32.5844L484.47 31.5436C481.871 27.2799 478.239 23.9857 473.599 21.6656L472.704 23.4544ZM482.765 32.5904C485.154 36.4496 486.36 40.872 486.36 45.888H488.36C488.36 40.536 487.069 35.7424 484.466 31.5376L482.765 32.5904ZM486.36 45.888C486.36 50.9038 485.154 55.361 482.762 59.2876L484.47 60.3284C487.069 56.063 488.36 51.2402 488.36 45.888H486.36ZM482.762 59.2876C480.366 63.2185 477.019 66.2944 472.694 68.5187L473.609 70.2973C478.244 67.9136 481.873 64.5895 484.47 60.3284L482.762 59.2876ZM472.694 68.5187C468.372 70.7417 463.476 71.864 457.984 71.864V73.864C463.756 73.864 468.972 72.6823 473.609 70.2973L472.694 68.5187ZM457.984 59.368C461.438 59.368 464.332 58.1815 466.584 55.7894L465.127 54.4186C463.283 56.3785 460.93 57.368 457.984 57.368V59.368ZM466.594 55.7788C468.854 53.3064 469.928 49.9679 469.928 45.888H467.928C467.928 49.616 466.953 52.4216 465.118 54.4292L466.594 55.7788ZM469.928 45.888C469.928 41.8686 468.852 38.5885 466.584 36.1786L465.127 37.5494C466.955 39.4915 467.928 42.2274 467.928 45.888H469.928ZM466.584 36.1786C464.332 33.7865 461.438 32.6 457.984 32.6V34.6C460.93 34.6 463.283 35.5895 465.127 37.5494L466.584 36.1786ZM457.984 32.6C454.53 32.6 451.635 33.7865 449.383 36.1786L450.84 37.5494C452.684 35.5895 455.038 34.6 457.984 34.6V32.6ZM449.383 36.1786C447.115 38.5885 446.04 41.8686 446.04 45.888H448.04C448.04 42.2274 449.012 39.4915 450.84 37.5494L449.383 36.1786ZM446.04 45.888C446.04 49.9679 447.113 53.3064 449.374 55.7788L450.85 54.4292C449.014 52.4216 448.04 49.616 448.04 45.888H446.04ZM449.383 55.7894C451.635 58.1815 454.53 59.368 457.984 59.368V57.368C455.038 57.368 452.684 56.3785 450.84 54.4186L449.383 55.7894ZM550.529 19.968H551.529V18.968H550.529V19.968ZM550.529 72V73H551.529V72H550.529ZM533.153 72H532.153V73H533.153V72ZM533.153 66.432H534.153V63.8454L532.413 65.7593L533.153 66.432ZM526.241 71.232L525.866 70.3051L525.866 70.3051L526.241 71.232ZM501.569 66.912L500.862 67.6191L500.868 67.6247L501.569 66.912ZM495.617 19.968V18.968H494.617V19.968H495.617ZM513.857 19.968H514.857V18.968H513.857V19.968ZM529.505 54.336L528.764 53.6645L528.763 53.6657L529.505 54.336ZM532.289 19.968V18.968H531.289V19.968H532.289ZM549.529 19.968V72H551.529V19.968H549.529ZM550.529 71H533.153V73H550.529V71ZM534.153 72V66.432H532.153V72H534.153ZM532.413 65.7593C530.596 67.7585 528.417 69.2724 525.866 70.3051L526.616 72.1589C529.441 71.0156 531.87 69.3295 533.893 67.1047L532.413 65.7593ZM525.866 70.3051C523.302 71.343 520.581 71.864 517.697 71.864V73.864C520.829 73.864 523.805 73.297 526.616 72.1589L525.866 70.3051ZM517.697 71.864C511.187 71.864 506.081 69.9492 502.271 66.1993L500.868 67.6247C505.121 71.8108 510.767 73.864 517.697 73.864V71.864ZM502.276 66.2049C498.562 62.4906 496.617 56.8379 496.617 49.056H494.617C494.617 57.1461 496.64 63.3974 500.862 67.6191L502.276 66.2049ZM496.617 49.056V19.968H494.617V49.056H496.617ZM495.617 20.968H513.857V18.968H495.617V20.968ZM512.857 19.968V46.08H514.857V19.968H512.857ZM512.857 46.08C512.857 50.0705 513.602 53.2011 515.292 55.2587L516.838 53.9893C515.584 52.4629 514.857 49.8975 514.857 46.08H512.857ZM515.292 55.2587C516.995 57.3315 519.453 58.312 522.497 58.312V56.312C519.91 56.312 518.079 55.5005 516.838 53.9893L515.292 55.2587ZM522.497 58.312C525.635 58.312 528.25 57.2178 530.247 55.0063L528.763 53.6657C527.176 55.4222 525.119 56.312 522.497 56.312V58.312ZM530.246 55.0075C532.336 52.7017 533.289 49.3103 533.289 45.024H531.289C531.289 49.0577 530.387 51.8743 528.764 53.6645L530.246 55.0075ZM533.289 45.024V19.968H531.289V45.024H533.289ZM532.289 20.968H550.529V18.968H532.289V20.968ZM579.654 26.208H578.654V29.1049L580.441 26.8249L579.654 26.208ZM586.854 20.928L587.218 21.8593L587.229 21.8551L586.854 20.928ZM597.126 19.104H598.126V18.104H597.126V19.104ZM597.126 35.52L597.011 36.5134L598.126 36.642V35.52H597.126ZM583.782 38.4L583.096 37.6724L583.091 37.6774L583.085 37.6824L583.782 38.4ZM580.518 72V73H581.518V72H580.518ZM562.278 72H561.278V73H562.278V72ZM562.278 19.968V18.968H561.278V19.968H562.278ZM579.654 19.968H580.654V18.968H579.654V19.968ZM580.441 26.8249C582.181 24.6048 584.432 22.9496 587.218 21.8592L586.489 19.9968C583.388 21.2104 580.839 23.0752 578.867 25.5911L580.441 26.8249ZM587.229 21.8551C590.098 20.6952 593.391 20.104 597.126 20.104V18.104C593.181 18.104 589.626 18.7288 586.479 20.0009L587.229 21.8551ZM596.126 19.104V35.52H598.126V19.104H596.126ZM597.241 34.5266C595.556 34.3323 594.139 34.232 592.998 34.232V36.232C594.033 36.232 595.367 36.3237 597.011 36.5134L597.241 34.5266ZM592.998 34.232C588.91 34.232 585.567 35.342 583.096 37.6724L584.468 39.1276C586.476 37.234 589.278 36.232 592.998 36.232V34.232ZM583.085 37.6824C580.644 40.052 579.518 43.5925 579.518 48.096H581.518C581.518 43.8955 582.568 40.972 584.478 39.1176L583.085 37.6824ZM579.518 48.096V72H581.518V48.096H579.518ZM580.518 71H562.278V73H580.518V71ZM563.278 72V19.968H561.278V72H563.278ZM562.278 20.968H579.654V18.968H562.278V20.968ZM578.654 19.968V26.208H580.654V19.968H578.654ZM25.6499 138.888H24.6499V139.888H25.6499V138.888ZM38.0339 138.888H39.0339V137.888H38.0339V138.888ZM38.0339 152.52V153.52H39.0339V152.52H38.0339ZM26.1299 152.52V151.52H25.1299V152.52H26.1299ZM26.1299 189V190H27.1299V189H26.1299ZM7.88988 189H6.88988V190H7.88988V189ZM7.88988 152.52H8.88988V151.52H7.88988V152.52ZM0.305875 152.52H-0.694125V153.52H0.305875V152.52ZM0.305875 138.888V137.888H-0.694125V138.888H0.305875ZM7.88988 138.888V139.888H8.88988V138.888H7.88988ZM13.5539 122.472L12.8588 121.753L12.8528 121.759L13.5539 122.472ZM36.3059 117.576L36.1042 118.555L36.1042 118.555L36.3059 117.576ZM41.6819 119.592L42.6255 119.923L42.8881 119.174L42.2188 118.748L41.6819 119.592ZM37.1699 132.456L36.6737 133.324L37.7161 133.92L38.1135 132.787L37.1699 132.456ZM27.1859 132.648L26.4589 131.961L26.4485 131.972L26.4385 131.984L27.1859 132.648ZM25.6499 139.888H38.0339V137.888H25.6499V139.888ZM37.0339 138.888V152.52H39.0339V138.888H37.0339ZM38.0339 151.52H26.1299V153.52H38.0339V151.52ZM25.1299 152.52V189H27.1299V152.52H25.1299ZM26.1299 188H7.88988V190H26.1299V188ZM8.88988 189V152.52H6.88988V189H8.88988ZM7.88988 151.52H0.305875V153.52H7.88988V151.52ZM1.30588 152.52V138.888H-0.694125V152.52H1.30588ZM0.305875 139.888H7.88988V137.888H0.305875V139.888ZM8.88988 138.888V137.544H6.88988V138.888H8.88988ZM8.88988 137.544C8.88988 131.42 10.7071 126.673 14.2549 123.185L12.8528 121.759C8.84866 125.695 6.88988 130.996 6.88988 137.544H8.88988ZM14.2489 123.191C17.854 119.706 22.921 117.904 29.5859 117.904V115.904C22.5548 115.904 16.9338 117.814 12.8589 121.753L14.2489 123.191ZM29.5859 117.904C31.8246 117.904 33.997 118.122 36.1042 118.555L36.5075 116.597C34.2628 116.134 31.9551 115.904 29.5859 115.904V117.904ZM36.1042 118.555C38.1983 118.987 39.8673 119.623 41.145 120.436L42.2188 118.748C40.6804 117.769 38.7655 117.061 36.5075 116.597L36.1042 118.555ZM40.7382 119.261L36.2262 132.125L38.1135 132.787L42.6255 119.923L40.7382 119.261ZM37.666 131.588C35.7402 130.487 33.7468 129.92 31.6979 129.92V131.92C33.3609 131.92 35.0155 132.377 36.6737 133.324L37.666 131.588ZM31.6979 129.92C29.5655 129.92 27.7749 130.568 26.4589 131.961L27.9129 133.335C28.7729 132.424 29.9903 131.92 31.6979 131.92V129.92ZM26.4385 131.984C25.1915 133.387 24.6499 135.36 24.6499 137.736H26.6499C26.6499 135.632 27.1323 134.213 27.9333 133.312L26.4385 131.984ZM24.6499 137.736V138.888H26.6499V137.736H24.6499ZM99.4979 136.968H100.498V135.968H99.4979V136.968ZM99.4979 189V190H100.498V189H99.4979ZM82.1219 189H81.1219V190H82.1219V189ZM82.1219 183.432H83.1219V180.845L81.3819 182.759L82.1219 183.432ZM75.2099 188.232L74.8347 187.305L74.8347 187.305L75.2099 188.232ZM50.5379 183.912L49.8307 184.619L49.8364 184.625L50.5379 183.912ZM44.5859 136.968V135.968H43.5859V136.968H44.5859ZM62.8259 136.968H63.8259V135.968H62.8259V136.968ZM78.4739 171.336L77.7329 170.664L77.7318 170.666L78.4739 171.336ZM81.2579 136.968V135.968H80.2579V136.968H81.2579ZM98.4979 136.968V189H100.498V136.968H98.4979ZM99.4979 188H82.1219V190H99.4979V188ZM83.1219 189V183.432H81.1219V189H83.1219ZM81.3819 182.759C79.5646 184.758 77.3859 186.272 74.8347 187.305L75.5851 189.159C78.4099 188.016 80.8392 186.33 82.8618 184.105L81.3819 182.759ZM74.8347 187.305C72.2703 188.343 69.5502 188.864 66.6659 188.864V190.864C69.7976 190.864 72.7734 190.297 75.5851 189.159L74.8347 187.305ZM66.6659 188.864C60.1555 188.864 55.0497 186.949 51.2393 183.199L49.8364 184.625C54.0901 188.811 59.7362 190.864 66.6659 190.864V188.864ZM51.245 183.205C47.5307 179.491 45.5859 173.838 45.5859 166.056H43.5859C43.5859 174.146 45.6091 180.397 49.8308 184.619L51.245 183.205ZM45.5859 166.056V136.968H43.5859V166.056H45.5859ZM44.5859 137.968H62.8259V135.968H44.5859V137.968ZM61.8259 136.968V163.08H63.8259V136.968H61.8259ZM61.8259 163.08C61.8259 167.071 62.5709 170.201 64.2612 172.259L65.8066 170.989C64.5528 169.463 63.8259 166.897 63.8259 163.08H61.8259ZM64.2612 172.259C65.9638 174.332 68.4213 175.312 71.4659 175.312V173.312C68.8785 173.312 67.0479 172.5 65.8066 170.989L64.2612 172.259ZM71.4659 175.312C74.6042 175.312 77.2185 174.218 79.216 172.006L77.7318 170.666C76.1452 172.422 74.0876 173.312 71.4659 173.312V175.312ZM79.2149 172.008C81.3045 169.702 82.2579 166.31 82.2579 162.024H80.2579C80.2579 166.058 79.3553 168.874 77.7329 170.664L79.2149 172.008ZM82.2579 162.024V136.968H80.2579V162.024H82.2579ZM81.2579 137.968H99.4979V135.968H81.2579V137.968ZM147.151 186.888L147.681 187.736L148.361 187.311L148.093 186.555L147.151 186.888ZM141.487 189.096L141.264 188.121L141.258 188.123L141.487 189.096ZM118.831 184.872L118.157 185.611L118.157 185.611L118.831 184.872ZM113.359 152.52H114.359V151.52H113.359V152.52ZM105.775 152.52H104.775V153.52H105.775V152.52ZM105.775 138.888V137.888H104.775V138.888H105.775ZM113.359 138.888V139.888H114.359V138.888H113.359ZM113.359 125.352V124.352H112.359V125.352H113.359ZM131.599 125.352H132.599V124.352H131.599V125.352ZM131.599 138.888H130.599V139.888H131.599V138.888ZM143.503 138.888H144.503V137.888H143.503V138.888ZM143.503 152.52V153.52H144.503V152.52H143.503ZM131.599 152.52V151.52H130.599V152.52H131.599ZM133.039 174.216L132.289 174.878L132.309 174.901L132.332 174.923L133.039 174.216ZM142.639 174.12L143.581 173.787L143.149 172.564L142.076 173.293L142.639 174.12ZM146.621 186.04C145.201 186.927 143.423 187.628 141.264 188.121L141.709 190.071C144.03 189.54 146.029 188.769 147.681 187.736L146.621 186.04ZM141.258 188.123C139.165 188.615 136.906 188.864 134.479 188.864V190.864C137.043 190.864 139.456 190.601 141.716 190.069L141.258 188.123ZM134.479 188.864C127.85 188.864 122.909 187.239 119.505 184.133L118.157 185.611C122.048 189.161 127.539 190.864 134.479 190.864V188.864ZM119.505 184.133C116.127 181.052 114.359 176.402 114.359 169.992H112.359C112.359 176.766 114.238 182.036 118.157 185.611L119.505 184.133ZM114.359 169.992V152.52H112.359V169.992H114.359ZM113.359 151.52H105.775V153.52H113.359V151.52ZM106.775 152.52V138.888H104.775V152.52H106.775ZM105.775 139.888H113.359V137.888H105.775V139.888ZM114.359 138.888V125.352H112.359V138.888H114.359ZM113.359 126.352H131.599V124.352H113.359V126.352ZM130.599 125.352V138.888H132.599V125.352H130.599ZM131.599 139.888H143.503V137.888H131.599V139.888ZM142.503 138.888V152.52H144.503V138.888H142.503ZM143.503 151.52H131.599V153.52H143.503V151.52ZM130.599 152.52V169.8H132.599V152.52H130.599ZM130.599 169.8C130.599 171.83 131.127 173.561 132.289 174.878L133.788 173.554C133.031 172.695 132.599 171.482 132.599 169.8H130.599ZM132.332 174.923C133.571 176.163 135.184 176.752 137.071 176.752V174.752C135.629 174.752 134.554 174.317 133.746 173.509L132.332 174.923ZM137.071 176.752C139.364 176.752 141.42 176.158 143.201 174.947L142.076 173.293C140.657 174.258 139.001 174.752 137.071 174.752V176.752ZM141.696 174.453L146.208 187.221L148.093 186.555L143.581 173.787L141.696 174.453ZM208.904 136.968H209.904V135.968H208.904V136.968ZM208.904 189V190H209.904V189H208.904ZM191.528 189H190.528V190H191.528V189ZM191.528 183.432H192.528V180.845L190.788 182.759L191.528 183.432ZM184.616 188.232L184.241 187.305L184.241 187.305L184.616 188.232ZM159.944 183.912L159.237 184.619L159.243 184.625L159.944 183.912ZM153.992 136.968V135.968H152.992V136.968H153.992ZM172.232 136.968H173.232V135.968H172.232V136.968ZM187.88 171.336L187.139 170.664L187.138 170.666L187.88 171.336ZM190.664 136.968V135.968H189.664V136.968H190.664ZM207.904 136.968V189H209.904V136.968H207.904ZM208.904 188H191.528V190H208.904V188ZM192.528 189V183.432H190.528V189H192.528ZM190.788 182.759C188.971 184.758 186.792 186.272 184.241 187.305L184.991 189.159C187.816 188.016 190.245 186.33 192.268 184.105L190.788 182.759ZM184.241 187.305C181.677 188.343 178.956 188.864 176.072 188.864V190.864C179.204 190.864 182.18 190.297 184.991 189.159L184.241 187.305ZM176.072 188.864C169.562 188.864 164.456 186.949 160.646 183.199L159.243 184.625C163.496 188.811 169.142 190.864 176.072 190.864V188.864ZM160.651 183.205C156.937 179.491 154.992 173.838 154.992 166.056H152.992C152.992 174.146 155.015 180.397 159.237 184.619L160.651 183.205ZM154.992 166.056V136.968H152.992V166.056H154.992ZM153.992 137.968H172.232V135.968H153.992V137.968ZM171.232 136.968V163.08H173.232V136.968H171.232ZM171.232 163.08C171.232 167.071 171.977 170.201 173.667 172.259L175.213 170.989C173.959 169.463 173.232 166.897 173.232 163.08H171.232ZM173.667 172.259C175.37 174.332 177.828 175.312 180.872 175.312V173.312C178.285 173.312 176.454 172.5 175.213 170.989L173.667 172.259ZM180.872 175.312C184.01 175.312 186.625 174.218 188.622 172.006L187.138 170.666C185.551 172.422 183.494 173.312 180.872 173.312V175.312ZM188.621 172.008C190.711 169.702 191.664 166.31 191.664 162.024H189.664C189.664 166.058 188.762 168.874 187.139 170.664L188.621 172.008ZM191.664 162.024V136.968H189.664V162.024H191.664ZM190.664 137.968H208.904V135.968H190.664V137.968ZM238.029 143.208H237.029V146.105L238.816 143.825L238.029 143.208ZM245.229 137.928L245.593 138.859L245.604 138.855L245.229 137.928ZM255.501 136.104H256.501V135.104H255.501V136.104ZM255.501 152.52L255.386 153.513L256.501 153.642V152.52H255.501ZM242.157 155.4L241.471 154.672L241.466 154.677L241.46 154.682L242.157 155.4ZM238.893 189V190H239.893V189H238.893ZM220.653 189H219.653V190H220.653V189ZM220.653 136.968V135.968H219.653V136.968H220.653ZM238.029 136.968H239.029V135.968H238.029V136.968ZM238.816 143.825C240.556 141.605 242.807 139.95 245.593 138.859L244.864 136.997C241.763 138.21 239.214 140.075 237.242 142.591L238.816 143.825ZM245.604 138.855C248.473 137.695 251.766 137.104 255.501 137.104V135.104C251.556 135.104 248.001 135.729 244.854 137.001L245.604 138.855ZM254.501 136.104V152.52H256.501V136.104H254.501ZM255.616 151.527C253.931 151.332 252.514 151.232 251.373 151.232V153.232C252.408 153.232 253.742 153.324 255.386 153.513L255.616 151.527ZM251.373 151.232C247.285 151.232 243.942 152.342 241.471 154.672L242.843 156.128C244.851 154.234 247.653 153.232 251.373 153.232V151.232ZM241.46 154.682C239.019 157.052 237.893 160.592 237.893 165.096H239.893C239.893 160.896 240.943 157.972 242.853 156.118L241.46 154.682ZM237.893 165.096V189H239.893V165.096H237.893ZM238.893 188H220.653V190H238.893V188ZM221.653 189V136.968H219.653V189H221.653ZM220.653 137.968H238.029V135.968H220.653V137.968ZM237.029 136.968V143.208H239.029V136.968H237.029ZM315.455 167.592V168.592H316.391L316.453 167.659L315.455 167.592ZM277.631 167.592V166.592H276.305L276.67 167.867L277.631 167.592ZM282.047 173.832L281.487 174.66L281.501 174.67L281.515 174.679L282.047 173.832ZM296.831 174.888L296.476 173.953L296.465 173.957L296.831 174.888ZM302.399 171.432L303.12 170.739L302.464 170.056L301.746 170.675L302.399 171.432ZM311.999 181.416L312.743 182.084L313.364 181.393L312.72 180.723L311.999 181.416ZM273.791 186.408L274.238 185.514L273.791 186.408ZM263.039 176.808L262.185 177.328L262.191 177.338L263.039 176.808ZM262.943 149.16L262.089 148.64L262.087 148.644L262.943 149.16ZM273.215 139.56L272.747 138.676L272.747 138.676L273.215 139.56ZM302.015 139.368L301.557 140.257L301.568 140.262L302.015 139.368ZM311.999 148.68L311.139 149.191L311.144 149.198L311.149 149.206L311.999 148.68ZM280.895 151.464L280.255 150.696L280.249 150.701L280.242 150.707L280.895 151.464ZM277.343 157.992L276.36 157.809L276.14 158.992H277.343V157.992ZM298.655 157.992V158.992H299.858L299.638 157.809L298.655 157.992ZM295.007 151.464L294.354 152.221L294.361 152.227L294.367 152.232L295.007 151.464ZM314.743 163.08C314.743 163.074 314.74 163.152 314.727 163.375C314.715 163.577 314.697 163.865 314.673 164.24C314.625 164.991 314.553 166.086 314.457 167.525L316.453 167.659C316.642 164.815 316.743 163.252 316.743 163.08H314.743ZM315.455 166.592H277.631V168.592H315.455V166.592ZM276.67 167.867C277.498 170.765 279.103 173.048 281.487 174.66L282.607 173.004C280.639 171.672 279.301 169.795 278.593 167.317L276.67 167.867ZM281.515 174.679C283.951 176.21 286.931 176.944 290.399 176.944V174.944C287.211 174.944 284.623 174.27 282.579 172.985L281.515 174.679ZM290.399 176.944C292.985 176.944 295.259 176.58 297.197 175.819L296.465 173.957C294.819 174.604 292.805 174.944 290.399 174.944V176.944ZM297.186 175.823C299.173 175.069 301.128 173.848 303.052 172.189L301.746 170.675C299.959 172.216 298.201 173.299 296.476 173.953L297.186 175.823ZM301.678 172.125L311.278 182.109L312.72 180.723L303.12 170.739L301.678 172.125ZM311.255 180.748C306.44 186.112 299.353 188.864 289.823 188.864V190.864C299.749 190.864 307.447 187.984 312.743 182.084L311.255 180.748ZM289.823 188.864C283.871 188.864 278.685 187.737 274.238 185.514L273.344 187.302C278.114 189.687 283.616 190.864 289.823 190.864V188.864ZM274.238 185.514C269.784 183.286 266.343 180.207 263.887 176.278L262.191 177.338C264.855 181.601 268.583 184.922 273.344 187.302L274.238 185.514ZM263.893 176.288C261.5 172.361 260.295 167.904 260.295 162.888H258.295C258.295 168.24 259.586 173.063 262.185 177.328L263.893 176.288ZM260.295 162.888C260.295 157.934 261.47 153.539 263.799 149.676L262.087 148.644C259.553 152.845 258.295 157.602 258.295 162.888H260.295ZM263.797 149.68C266.197 145.742 269.486 142.666 273.683 140.444L272.747 138.676C268.241 141.062 264.681 144.386 262.089 148.64L263.797 149.68ZM273.683 140.444C277.876 138.224 282.609 137.104 287.903 137.104V135.104C282.317 135.104 277.258 136.288 272.747 138.676L273.683 140.444ZM287.903 137.104C292.943 137.104 297.487 138.16 301.557 140.257L302.473 138.479C298.095 136.224 293.232 135.104 287.903 135.104V137.104ZM301.568 140.262C305.619 142.288 308.804 145.258 311.139 149.191L312.859 148.169C310.33 143.91 306.859 140.672 302.462 138.474L301.568 140.262ZM311.149 149.206C313.531 153.054 314.743 157.665 314.743 163.08H316.743C316.743 157.359 315.459 152.37 312.849 148.154L311.149 149.206ZM287.999 148.064C284.981 148.064 282.377 148.927 280.255 150.696L281.535 152.232C283.253 150.801 285.386 150.064 287.999 150.064V148.064ZM280.242 150.707C278.19 152.476 276.907 154.867 276.36 157.809L278.326 158.175C278.803 155.613 279.888 153.652 281.548 152.221L280.242 150.707ZM277.343 158.992H298.655V156.992H277.343V158.992ZM299.638 157.809C299.089 154.857 297.768 152.463 295.647 150.696L294.367 152.232C296.086 153.665 297.197 155.623 297.672 158.175L299.638 157.809ZM295.66 150.707C293.596 148.927 291.017 148.064 287.999 148.064V150.064C290.613 150.064 292.707 150.801 294.354 152.221L295.66 150.707ZM397.69 139.368L397.197 140.238L397.204 140.241L397.69 139.368ZM406.906 148.776L406.029 149.256L406.033 149.264L406.038 149.272L406.906 148.776ZM406.906 177.096L406.035 176.606L406.029 176.616L406.906 177.096ZM397.69 186.6L398.183 187.47L398.188 187.467L397.69 186.6ZM369.466 183.816L370.232 183.172L368.466 181.074V183.816H369.466ZM369.466 189V190H370.466V189H369.466ZM352.09 189H351.09V190H352.09V189ZM352.09 117.768V116.768H351.09V117.768H352.09ZM370.33 117.768H371.33V116.768H370.33V117.768ZM370.33 141.48H369.33V143.925L371.044 142.181L370.33 141.48ZM388.858 172.104L389.587 172.789L389.592 172.784L389.596 172.779L388.858 172.104ZM388.858 153.864L389.587 153.179L389.587 153.179L388.858 153.864ZM373.114 153.864L372.386 153.179L372.386 153.179L373.114 153.864ZM373.114 172.104L372.376 172.779L372.381 172.784L372.386 172.789L373.114 172.104ZM384.826 137.104C389.403 137.104 393.519 138.153 397.197 140.238L398.183 138.498C394.182 136.231 389.722 135.104 384.826 135.104V137.104ZM397.204 140.241C400.935 142.321 403.875 145.317 406.029 149.256L407.784 148.296C405.458 144.043 402.253 140.767 398.177 138.495L397.204 140.241ZM406.038 149.272C408.243 153.131 409.362 157.658 409.362 162.888H411.362C411.362 157.366 410.178 152.485 407.775 148.28L406.038 149.272ZM409.362 162.888C409.362 168.117 408.243 172.68 406.035 176.606L407.778 177.586C410.178 173.32 411.362 168.411 411.362 162.888H409.362ZM406.029 176.616C403.874 180.557 400.931 183.588 397.193 185.733L398.188 187.467C402.258 185.132 405.459 181.827 407.784 177.576L406.029 176.616ZM397.197 185.73C393.519 187.815 389.403 188.864 384.826 188.864V190.864C389.722 190.864 394.182 189.737 398.183 187.47L397.197 185.73ZM384.826 188.864C378.179 188.864 373.38 186.915 370.232 183.172L368.701 184.46C372.337 188.781 377.778 190.864 384.826 190.864V188.864ZM368.466 183.816V189H370.466V183.816H368.466ZM369.466 188H352.09V190H369.466V188ZM353.09 189V117.768H351.09V189H353.09ZM352.09 118.768H370.33V116.768H352.09V118.768ZM369.33 117.768V141.48H371.33V117.768H369.33ZM371.044 142.181C374.335 138.829 378.887 137.104 384.826 137.104V135.104C378.478 135.104 373.365 136.963 369.617 140.779L371.044 142.181ZM380.986 176.368C384.44 176.368 387.335 175.182 389.587 172.789L388.13 171.419C386.286 173.378 383.932 174.368 380.986 174.368V176.368ZM389.596 172.779C391.857 170.306 392.93 166.968 392.93 162.888H390.93C390.93 166.616 389.956 169.422 388.12 171.429L389.596 172.779ZM392.93 162.888C392.93 158.869 391.855 155.589 389.587 153.179L388.13 154.549C389.958 156.491 390.93 159.227 390.93 162.888H392.93ZM389.587 153.179C387.335 150.786 384.44 149.6 380.986 149.6V151.6C383.932 151.6 386.286 152.59 388.13 154.549L389.587 153.179ZM380.986 149.6C377.532 149.6 374.638 150.786 372.386 153.179L373.843 154.549C375.687 152.59 378.04 151.6 380.986 151.6V149.6ZM372.386 153.179C370.118 155.589 369.042 158.869 369.042 162.888H371.042C371.042 159.227 372.015 156.491 373.843 154.549L372.386 153.179ZM369.042 162.888C369.042 166.968 370.116 170.306 372.376 172.779L373.852 171.429C372.017 169.422 371.042 166.616 371.042 162.888H369.042ZM372.386 172.789C374.638 175.182 377.532 176.368 380.986 176.368V174.368C378.04 174.368 375.687 173.378 373.843 171.419L372.386 172.789ZM471.736 167.592V168.592H472.672L472.734 167.659L471.736 167.592ZM433.912 167.592V166.592H432.587L432.951 167.867L433.912 167.592ZM438.328 173.832L437.768 174.66L437.782 174.67L437.796 174.679L438.328 173.832ZM453.112 174.888L452.758 173.953L452.747 173.957L453.112 174.888ZM458.68 171.432L459.401 170.739L458.745 170.056L458.027 170.675L458.68 171.432ZM468.28 181.416L469.025 182.084L469.645 181.393L469.001 180.723L468.28 181.416ZM430.072 186.408L430.52 185.514L430.072 186.408ZM419.32 176.808L418.466 177.328L418.472 177.338L419.32 176.808ZM419.224 149.16L418.37 148.64L418.368 148.644L419.224 149.16ZM429.496 139.56L429.028 138.676L429.028 138.676L429.496 139.56ZM458.296 139.368L457.838 140.257L457.849 140.262L458.296 139.368ZM468.28 148.68L467.421 149.191L467.425 149.198L467.43 149.206L468.28 148.68ZM437.176 151.464L436.536 150.696L436.53 150.701L436.523 150.707L437.176 151.464ZM433.624 157.992L432.641 157.809L432.421 158.992H433.624V157.992ZM454.936 157.992V158.992H456.14L455.92 157.809L454.936 157.992ZM451.288 151.464L450.635 152.221L450.642 152.227L450.648 152.232L451.288 151.464ZM471.024 163.08C471.024 163.074 471.021 163.152 471.008 163.375C470.996 163.577 470.978 163.865 470.954 164.24C470.907 164.991 470.835 166.086 470.739 167.525L472.734 167.659C472.924 164.815 473.024 163.252 473.024 163.08H471.024ZM471.736 166.592H433.912V168.592H471.736V166.592ZM432.951 167.867C433.779 170.765 435.384 173.048 437.768 174.66L438.889 173.004C436.92 171.672 435.582 169.795 434.874 167.317L432.951 167.867ZM437.796 174.679C440.232 176.21 443.212 176.944 446.68 176.944V174.944C443.492 174.944 440.905 174.27 438.861 172.985L437.796 174.679ZM446.68 176.944C449.266 176.944 451.541 176.58 453.478 175.819L452.747 173.957C451.1 174.604 449.087 174.944 446.68 174.944V176.944ZM453.467 175.823C455.454 175.069 457.409 173.848 459.333 172.189L458.027 170.675C456.24 172.216 454.483 173.299 452.758 173.953L453.467 175.823ZM457.96 172.125L467.56 182.109L469.001 180.723L459.401 170.739L457.96 172.125ZM467.536 180.748C462.721 186.112 455.635 188.864 446.104 188.864V190.864C456.03 190.864 463.728 187.984 469.025 182.084L467.536 180.748ZM446.104 188.864C440.152 188.864 434.966 187.737 430.52 185.514L429.625 187.302C434.395 189.687 439.897 190.864 446.104 190.864V188.864ZM430.52 185.514C426.065 183.286 422.624 180.207 420.168 176.278L418.472 177.338C421.136 181.601 424.864 184.922 429.625 187.302L430.52 185.514ZM420.174 176.288C417.782 172.361 416.576 167.904 416.576 162.888H414.576C414.576 168.24 415.867 173.063 418.466 177.328L420.174 176.288ZM416.576 162.888C416.576 157.934 417.751 153.539 420.081 149.676L418.368 148.644C415.834 152.845 414.576 157.602 414.576 162.888H416.576ZM420.078 149.68C422.478 145.742 425.767 142.666 429.964 140.444L429.028 138.676C424.522 141.062 420.963 144.386 418.37 148.64L420.078 149.68ZM429.964 140.444C434.157 138.224 438.89 137.104 444.184 137.104V135.104C438.599 135.104 433.539 136.288 429.028 138.676L429.964 140.444ZM444.184 137.104C449.224 137.104 453.769 138.16 457.838 140.257L458.754 138.479C454.376 136.224 449.513 135.104 444.184 135.104V137.104ZM457.849 140.262C461.9 142.288 465.086 145.258 467.421 149.191L469.14 148.169C466.611 143.91 463.141 140.672 458.744 138.474L457.849 140.262ZM467.43 149.206C469.812 153.054 471.024 157.665 471.024 163.08H473.024C473.024 157.359 471.74 152.37 469.131 148.154L467.43 149.206ZM444.28 148.064C441.262 148.064 438.659 148.927 436.536 150.696L437.817 152.232C439.534 150.801 441.667 150.064 444.28 150.064V148.064ZM436.523 150.707C434.471 152.476 433.189 154.867 432.641 157.809L434.608 158.175C435.084 155.613 436.17 153.652 437.829 152.221L436.523 150.707ZM433.624 158.992H454.936V156.992H433.624V158.992ZM455.92 157.809C455.37 154.857 454.049 152.463 451.929 150.696L450.648 152.232C452.368 153.665 453.478 155.623 453.953 158.175L455.92 157.809ZM451.941 150.707C449.877 148.927 447.298 148.064 444.28 148.064V150.064C446.895 150.064 448.988 150.801 450.635 152.221L451.941 150.707ZM516.338 186.888L516.868 187.736L517.548 187.311L517.281 186.555L516.338 186.888ZM510.674 189.096L510.451 188.121L510.445 188.123L510.674 189.096ZM488.018 184.872L487.344 185.611L487.344 185.611L488.018 184.872ZM482.546 152.52H483.546V151.52H482.546V152.52ZM474.962 152.52H473.962V153.52H474.962V152.52ZM474.962 138.888V137.888H473.962V138.888H474.962ZM482.546 138.888V139.888H483.546V138.888H482.546ZM482.546 125.352V124.352H481.546V125.352H482.546ZM500.786 125.352H501.786V124.352H500.786V125.352ZM500.786 138.888H499.786V139.888H500.786V138.888ZM512.69 138.888H513.69V137.888H512.69V138.888ZM512.69 152.52V153.52H513.69V152.52H512.69ZM500.786 152.52V151.52H499.786V152.52H500.786ZM502.226 174.216L501.476 174.878L501.497 174.901L501.519 174.923L502.226 174.216ZM511.826 174.12L512.769 173.787L512.337 172.564L511.264 173.293L511.826 174.12ZM515.808 186.04C514.388 186.927 512.61 187.628 510.451 188.121L510.897 190.071C513.218 189.54 515.216 188.769 516.868 187.736L515.808 186.04ZM510.445 188.123C508.352 188.615 506.094 188.864 503.666 188.864V190.864C506.23 190.864 508.644 190.601 510.903 190.069L510.445 188.123ZM503.666 188.864C497.038 188.864 492.097 187.239 488.692 184.133L487.344 185.611C491.236 189.161 496.727 190.864 503.666 190.864V188.864ZM488.692 184.133C485.315 181.052 483.546 176.402 483.546 169.992H481.546C481.546 176.766 483.425 182.036 487.344 185.611L488.692 184.133ZM483.546 169.992V152.52H481.546V169.992H483.546ZM482.546 151.52H474.962V153.52H482.546V151.52ZM475.962 152.52V138.888H473.962V152.52H475.962ZM474.962 139.888H482.546V137.888H474.962V139.888ZM483.546 138.888V125.352H481.546V138.888H483.546ZM482.546 126.352H500.786V124.352H482.546V126.352ZM499.786 125.352V138.888H501.786V125.352H499.786ZM500.786 139.888H512.69V137.888H500.786V139.888ZM511.69 138.888V152.52H513.69V138.888H511.69ZM512.69 151.52H500.786V153.52H512.69V151.52ZM499.786 152.52V169.8H501.786V152.52H499.786ZM499.786 169.8C499.786 171.83 500.314 173.561 501.476 174.878L502.976 173.554C502.218 172.695 501.786 171.482 501.786 169.8H499.786ZM501.519 174.923C502.759 176.163 504.372 176.752 506.258 176.752V174.752C504.816 174.752 503.741 174.317 502.933 173.509L501.519 174.923ZM506.258 176.752C508.551 176.752 510.607 176.158 512.388 174.947L511.264 173.293C509.845 174.258 508.189 174.752 506.258 174.752V176.752ZM510.883 174.453L515.395 187.221L517.281 186.555L512.769 173.787L510.883 174.453ZM558.244 186.888L558.774 187.736L559.454 187.311L559.187 186.555L558.244 186.888ZM552.58 189.096L552.358 188.121L552.351 188.123L552.58 189.096ZM529.924 184.872L529.25 185.611L529.25 185.611L529.924 184.872ZM524.452 152.52H525.452V151.52H524.452V152.52ZM516.868 152.52H515.868V153.52H516.868V152.52ZM516.868 138.888V137.888H515.868V138.888H516.868ZM524.452 138.888V139.888H525.452V138.888H524.452ZM524.452 125.352V124.352H523.452V125.352H524.452ZM542.692 125.352H543.692V124.352H542.692V125.352ZM542.692 138.888H541.692V139.888H542.692V138.888ZM554.596 138.888H555.596V137.888H554.596V138.888ZM554.596 152.52V153.52H555.596V152.52H554.596ZM542.692 152.52V151.52H541.692V152.52H542.692ZM544.132 174.216L543.383 174.878L543.403 174.901L543.425 174.923L544.132 174.216ZM553.732 174.12L554.675 173.787L554.243 172.564L553.17 173.293L553.732 174.12ZM557.714 186.04C556.294 186.927 554.517 187.628 552.358 188.121L552.803 190.071C555.124 189.54 557.122 188.769 558.774 187.736L557.714 186.04ZM552.351 188.123C550.259 188.615 548 188.864 545.572 188.864V190.864C548.137 190.864 550.55 190.601 552.809 190.069L552.351 188.123ZM545.572 188.864C538.944 188.864 534.003 187.239 530.598 184.133L529.25 185.611C533.142 189.161 538.633 190.864 545.572 190.864V188.864ZM530.598 184.133C527.221 181.052 525.452 176.402 525.452 169.992H523.452C523.452 176.766 525.332 182.036 529.25 185.611L530.598 184.133ZM525.452 169.992V152.52H523.452V169.992H525.452ZM524.452 151.52H516.868V153.52H524.452V151.52ZM517.868 152.52V138.888H515.868V152.52H517.868ZM516.868 139.888H524.452V137.888H516.868V139.888ZM525.452 138.888V125.352H523.452V138.888H525.452ZM524.452 126.352H542.692V124.352H524.452V126.352ZM541.692 125.352V138.888H543.692V125.352H541.692ZM542.692 139.888H554.596V137.888H542.692V139.888ZM553.596 138.888V152.52H555.596V138.888H553.596ZM554.596 151.52H542.692V153.52H554.596V151.52ZM541.692 152.52V169.8H543.692V152.52H541.692ZM541.692 169.8C541.692 171.83 542.22 173.561 543.383 174.878L544.882 173.554C544.124 172.695 543.692 171.482 543.692 169.8H541.692ZM543.425 174.923C544.665 176.163 546.278 176.752 548.164 176.752V174.752C546.723 174.752 545.648 174.317 544.839 173.509L543.425 174.923ZM548.164 176.752C550.458 176.752 552.514 176.158 554.295 174.947L553.17 173.293C551.751 174.258 550.095 174.752 548.164 174.752V176.752ZM552.79 174.453L557.302 187.221L559.187 186.555L554.675 173.787L552.79 174.453ZM616.674 167.592V168.592H617.609L617.672 167.659L616.674 167.592ZM578.85 167.592V166.592H577.524L577.888 167.867L578.85 167.592ZM583.266 173.832L582.706 174.66L582.719 174.67L582.734 174.679L583.266 173.832ZM598.05 174.888L597.695 173.953L597.684 173.957L598.05 174.888ZM603.618 171.432L604.339 170.739L603.682 170.056L602.965 170.675L603.618 171.432ZM613.218 181.416L613.962 182.084L614.583 181.393L613.939 180.723L613.218 181.416ZM575.01 186.408L575.457 185.514L575.01 186.408ZM564.258 176.808L563.404 177.328L563.41 177.338L564.258 176.808ZM564.162 149.16L563.308 148.64L563.306 148.644L564.162 149.16ZM574.434 139.56L573.966 138.676L573.966 138.676L574.434 139.56ZM603.234 139.368L602.776 140.257L602.787 140.262L603.234 139.368ZM613.218 148.68L612.358 149.191L612.363 149.198L612.368 149.206L613.218 148.68ZM582.114 151.464L581.474 150.696L581.467 150.701L581.461 150.707L582.114 151.464ZM578.562 157.992L577.579 157.809L577.359 158.992H578.562V157.992ZM599.874 157.992V158.992H601.077L600.857 157.809L599.874 157.992ZM596.226 151.464L595.573 152.221L595.579 152.227L595.586 152.232L596.226 151.464ZM615.962 163.08C615.962 163.074 615.959 163.152 615.946 163.375C615.934 163.577 615.916 163.865 615.892 164.24C615.844 164.991 615.772 166.086 615.676 167.525L617.672 167.659C617.861 164.815 617.962 163.252 617.962 163.08H615.962ZM616.674 166.592H578.85V168.592H616.674V166.592ZM577.888 167.867C578.716 170.765 580.322 173.048 582.706 174.66L583.826 173.004C581.858 171.672 580.519 169.795 579.811 167.317L577.888 167.867ZM582.734 174.679C585.17 176.21 588.15 176.944 591.618 176.944V174.944C588.43 174.944 585.842 174.27 583.798 172.985L582.734 174.679ZM591.618 176.944C594.204 176.944 596.478 176.58 598.416 175.819L597.684 173.957C596.038 174.604 594.024 174.944 591.618 174.944V176.944ZM598.405 175.823C600.392 175.069 602.346 173.848 604.271 172.189L602.965 170.675C601.177 172.216 599.42 173.299 597.695 173.953L598.405 175.823ZM602.897 172.125L612.497 182.109L613.939 180.723L604.339 170.739L602.897 172.125ZM612.474 180.748C607.658 186.112 600.572 188.864 591.042 188.864V190.864C600.968 190.864 608.665 187.984 613.962 182.084L612.474 180.748ZM591.042 188.864C585.089 188.864 579.903 187.737 575.457 185.514L574.563 187.302C579.332 189.687 584.834 190.864 591.042 190.864V188.864ZM575.457 185.514C571.002 183.286 567.562 180.207 565.106 176.278L563.41 177.338C566.074 181.601 569.801 184.922 574.563 187.302L575.457 185.514ZM565.112 176.288C562.719 172.361 561.514 167.904 561.514 162.888H559.514C559.514 168.24 560.805 173.063 563.404 177.328L565.112 176.288ZM561.514 162.888C561.514 157.934 562.688 153.539 565.018 149.676L563.306 148.644C560.771 152.845 559.514 157.602 559.514 162.888H561.514ZM565.016 149.68C567.416 145.742 570.704 142.666 574.902 140.444L573.966 138.676C569.459 141.062 565.9 144.386 563.308 148.64L565.016 149.68ZM574.902 140.444C579.095 138.224 583.828 137.104 589.122 137.104V135.104C583.536 135.104 578.477 136.288 573.966 138.676L574.902 140.444ZM589.122 137.104C594.161 137.104 598.706 138.16 602.776 140.257L603.692 138.479C599.314 136.224 594.45 135.104 589.122 135.104V137.104ZM602.787 140.262C606.838 142.288 610.023 145.258 612.358 149.191L614.078 148.169C611.549 143.91 608.078 140.672 603.681 138.474L602.787 140.262ZM612.368 149.206C614.75 153.054 615.962 157.665 615.962 163.08H617.962C617.962 157.359 616.678 152.37 614.068 148.154L612.368 149.206ZM589.218 148.064C586.199 148.064 583.596 148.927 581.474 150.696L582.754 152.232C584.472 150.801 586.604 150.064 589.218 150.064V148.064ZM581.461 150.707C579.409 152.476 578.126 154.867 577.579 157.809L579.545 158.175C580.022 155.613 581.107 153.652 582.767 152.221L581.461 150.707ZM578.562 158.992H599.874V156.992H578.562V158.992ZM600.857 157.809C600.308 154.857 598.987 152.463 596.866 150.696L595.586 152.232C597.305 153.665 598.416 155.623 598.891 158.175L600.857 157.809ZM596.879 150.707C594.814 148.927 592.236 148.064 589.218 148.064V150.064C591.832 150.064 593.925 150.801 595.573 152.221L596.879 150.707ZM642.748 143.208H641.748V146.105L643.535 143.825L642.748 143.208ZM649.948 137.928L650.312 138.859L650.322 138.855L649.948 137.928ZM660.22 136.104H661.22V135.104H660.22V136.104ZM660.22 152.52L660.105 153.513L661.22 153.642V152.52H660.22ZM646.876 155.4L646.19 154.672L646.184 154.677L646.179 154.682L646.876 155.4ZM643.612 189V190H644.612V189H643.612ZM625.372 189H624.372V190H625.372V189ZM625.372 136.968V135.968H624.372V136.968H625.372ZM642.748 136.968H643.748V135.968H642.748V136.968ZM643.535 143.825C645.275 141.605 647.526 139.95 650.312 138.859L649.583 136.997C646.482 138.21 643.933 140.075 641.961 142.591L643.535 143.825ZM650.322 138.855C653.192 137.695 656.485 137.104 660.22 137.104V135.104C656.274 135.104 652.72 135.729 649.573 137.001L650.322 138.855ZM659.22 136.104V152.52H661.22V136.104H659.22ZM660.334 151.527C658.65 151.332 657.233 151.232 656.092 151.232V153.232C657.127 153.232 658.461 153.324 660.105 153.513L660.334 151.527ZM656.092 151.232C652.004 151.232 648.661 152.342 646.19 154.672L647.562 156.128C649.57 154.234 652.371 153.232 656.092 153.232V151.232ZM646.179 154.682C643.738 157.052 642.612 160.592 642.612 165.096H644.612C644.612 160.896 645.661 157.972 647.572 156.118L646.179 154.682ZM642.612 165.096V189H644.612V165.096H642.612ZM643.612 188H625.372V190H643.612V188ZM626.372 189V136.968H624.372V189H626.372ZM625.372 137.968H642.748V135.968H625.372V137.968ZM641.748 136.968V143.208H643.748V136.968H641.748Z" fill="black"/>
</svg>
